<svg xmlns="http://www.w3.org/2000/svg" viewBox="0 0 620 451" width="620" height="451">
<style>text{font-family:'SFMono-Regular','Consolas','Liberation Mono',monospace;}</style>
<defs>
<linearGradient id="accentGrad" x1="0" y1="0" x2="1" y2="0">
  <stop offset="0%" stop-color="#5b7fd6"/>
  <stop offset="55%" stop-color="#8ab4e8"/>
  <stop offset="100%" stop-color="#b48ae0"/>
</linearGradient>
<linearGradient id="swatchGrad" x1="0" y1="0" x2="1" y2="0">
  <stop offset="0%" stop-color="#2b3550"/>
  <stop offset="40%" stop-color="#4a5fa0"/>
  <stop offset="70%" stop-color="#8ab4e8"/>
  <stop offset="100%" stop-color="#c48ae8"/>
</linearGradient>
</defs>
<rect width="100%" height="100%" fill="transparent"/>
<rect x="1" y="1" width="618" height="449" rx="10" fill="#0d1117" fill-opacity="0.35" stroke="#28303d" stroke-width="1"/>
<text x="26" y="26" font-size="14" fill="#8ab4e8" font-weight="bold">guest@zeraphisstudios<tspan fill="#8ab4e8"><animate attributeName="opacity" values="1;1;0;0;1" dur="1.1s" repeatCount="indefinite"/>_</tspan></text>
<text x="26" y="42.5" font-size="13" fill="#7d8b9e">github.com/ZeraphisStudios</text>
<rect x="26" y="54.7" width="568" height="2" fill="url(#accentGrad)"/>
<text x="26" y="76.6" font-size="13" fill="#7d8b9e">Name:</text>
<text x="176" y="76.6" font-size="13" fill="#dde6f0">Zeraphis</text>
<text x="26" y="98.6" font-size="13" fill="#7d8b9e">Role:</text>
<text x="176" y="98.6" font-size="13" fill="#dde6f0">FiveM Framework Developer</text>
<text x="26" y="120.6" font-size="13" fill="#7d8b9e">Also:</text>
<text x="176" y="120.6" font-size="13" fill="#dde6f0">Full Stack Web Developer</text>
<text x="26" y="142.6" font-size="13" fill="#7d8b9e">Focus:</text>
<text x="176" y="142.6" font-size="13" fill="#dde6f0">FiveM Systems &amp; Modern Web Applications</text>
<text x="26" y="164.6" font-size="13" fill="#7d8b9e">FiveM:</text>
<text x="176" y="164.6" font-size="13" fill="#dde6f0">QBCore · Qbox · ESX</text>
<text x="26" y="186.6" font-size="13" fill="#7d8b9e">Libraries:</text>
<text x="176" y="186.6" font-size="13" fill="#dde6f0">ox_lib · ox_inventory · ox_target</text>
<text x="26" y="208.6" font-size="13" fill="#7d8b9e">Frontend:</text>
<text x="176" y="208.6" font-size="13" fill="#dde6f0">React · TypeScript · TSX</text>
<text x="26" y="230.6" font-size="13" fill="#7d8b9e">Web:</text>
<text x="176" y="230.6" font-size="13" fill="#dde6f0">HTML · CSS · JavaScript</text>
<text x="26" y="252.6" font-size="13" fill="#7d8b9e">Backend:</text>
<text x="176" y="252.6" font-size="13" fill="#dde6f0">Node.js · MySQL · REST APIs</text>
<text x="26" y="274.6" font-size="13" fill="#7d8b9e">Languages:</text>
<text x="176" y="274.6" font-size="13" fill="#dde6f0">Lua · JavaScript · TypeScript · C# · Pawn</text>
<line x1="26" y1="288.9" x2="594" y2="288.9" stroke="#28303d" stroke-width="1" stroke-dasharray="2,3"/>
<text x="26" y="302.1" font-size="13" fill="#7d8b9e">Specialities:</text>
<text x="176" y="302.1" font-size="13" fill="#dde6f0">Framework Compatibility</text>
<text x="26" y="324.1" font-size="13" fill="#7d8b9e"></text>
<text x="176" y="324.1" font-size="13" fill="#dde6f0">Modern NUI Interfaces</text>
<text x="26" y="346.1" font-size="13" fill="#7d8b9e"></text>
<text x="176" y="346.1" font-size="13" fill="#dde6f0">Performance Optimisation</text>
<line x1="26" y1="360.4" x2="594" y2="360.4" stroke="#28303d" stroke-width="1" stroke-dasharray="2,3"/>
<text x="26" y="373.6" font-size="13" fill="#7d8b9e">Current:</text>
<text x="176" y="373.6" font-size="13" fill="#dde6f0">Building immersive FiveM experiences</text>
<text x="26" y="395.6" font-size="13" fill="#7d8b9e"></text>
<text x="176" y="395.6" font-size="13" fill="#dde6f0">Creating responsive web applications</text>
<rect x="26" y="425.3" width="568" height="10" rx="3" fill="url(#swatchGrad)"/>
</svg>